e Illustrator 19.0.0, SVG Export Plug-In . SVG Version: 6.00 Build 0)  -->
<svg version="1.1" id="Layer_1" xmlns="http://www.w3.org/2000/svg" xmlns:xlink="http://www.w3.org/1999/xlink" x="0px" y="0px"
	 viewBox="0 0 4000 4000" style="enable-background:new 0 0 4000 4000;" xml:space="preserve">
<style type="text/css">
	.st0{fill-rule:evenodd;clip-rule:evenodd;fill:#FFFFFF;}
	.st1{clip-path:url(#SVGID_2_);fill:url(#SVGID_3_);}
	.st2{opacity:0.3;fill-rule:evenodd;clip-rule:evenodd;fill:#005B50;}
	.st3{clip-path:url(#SVGID_5_);fill:url(#SVGID_6_);}
	.st4{opacity:0.3;fill-rule:evenodd;clip-rule:evenodd;fill:#3E005D;}
	.st5{opacity:0.3;fill-rule:evenodd;clip-rule:evenodd;fill:#1E003D;}
	.st6{clip-path:url(#SVGID_8_);fill:url(#SVGID_9_);}
	.st7{opacity:0.3;fill-rule:evenodd;clip-rule:evenodd;fill:#8A0028;}
	.st8{clip-path:url(#SVGID_11_);fill:url(#SVGID_12_);}
	.st9{opacity:0.28;fill-rule:evenodd;clip-rule:evenodd;fill:#FFFF00;}
	.st10{opacity:0.28;fill-rule:evenodd;clip-rule:evenodd;fill:#FFFFFF;}
	.st11{opacity:0.28;fill-rule:evenodd;clip-rule:evenodd;fill:#8A0028;}
	.st12{opacity:0.3;fill-rule:evenodd;clip-rule:evenodd;fill:#FFFFFF;}
	.st13{fill:none;}
</style>
<g>
	<rect x="16.5" y="16.5" class="st0" width="3966.9" height="3966.9"/>
	<g>
		<defs>
			<path id="SVGID_1_" d="M2000,1376c485.7,0,879.5,393.8,879.5,879.5S2485.7,3135,2000,3135s-879.5-393.8-879.5-879.5
				S1514.3,1376,2000,1376 M2000,1121.1c626.5,0,1134.4,507.9,1134.4,1134.4c0,626.5-507.9,1134.4-1134.4,1134.4
				S865.6,2882,865.6,2255.5C865.6,1629,1373.5,1121.1,2000,1121.1z"/>
		</defs>
		<clipPath id="SVGID_2_">
			<use xlink:href="#SVGID_1_"  style="overflow:visible;"/>
		</clipPath>
		<linearGradient id="SVGID_3_" gradientUnits="userSpaceOnUse" x1="1892.9938" y1="91.7777" x2="2095.9673" y2="4196.0659">
			<stop  offset="0" style="stop-color:#ECF955"/>
			<stop  offset="1" style="stop-color:#1A85F8"/>
		</linearGradient>
		<rect x="865.6" y="1121.1" class="st1" width="2268.7" height="2268.7"/>
	</g>
	<path class="st2" d="M2000,1121.1c104.9,0,206.4,14.3,302.7,40.9l80.4,301.6c-115.8-56.1-245.8-87.7-383.2-87.7
		c-194.1,0-373.5,62.9-519,169.5l112.7-349.3C1719.8,1147.7,1856.8,1121.1,2000,1121.1"/>
	<path class="st2" d="M3096.5,1964c24.7,93,37.9,190.7,37.9,291.5c0,457.8-271.3,852.3-661.8,1031.5
		c-45.3-78.6-86.4-160.5-117.8-226.5c309-136.4,524.8-445.5,524.8-805c0-78.6-10.4-154.7-29.7-227.1L3096.5,1964z"/>
	<path class="st2" d="M1450.8,3248.2c-282.6-156.7-491.3-430.6-560.4-756c73.4-15.1,166.6-34.4,249.4-52.5
		c53.8,252.5,215.9,464.8,435.4,586.1C1548.1,3074.1,1496.1,3166.8,1450.8,3248.2"/>
	<path class="st2" d="M2000,1376c485.7,0,879.5,393.8,879.5,879.5S2485.7,3135,2000,3135s-879.5-393.8-879.5-879.5
		S1514.3,1376,2000,1376 M2000,1273c542.6,0,982.5,439.9,982.5,982.5c0,542.6-439.9,982.5-982.5,982.5s-982.5-439.9-982.5-982.5
		C1017.5,1712.9,1457.4,1273,2000,1273z"/>
	<g>
		<defs>
			<path id="SVGID_4_" d="M1976.8,1092.8l-240.7-58.2L822.3,3566.8c0,0,329.9,23.6,612.6-471.2
				c282.7-494.8,683.3-1767.1,683.3-1767.1L1976.8,1092.8z"/>
		</defs>
		<clipPath id="SVGID_5_">
			<use xlink:href="#SVGID_4_"  style="overflow:visible;"/>
		</clipPath>
		<linearGradient id="SVGID_6_" gradientUnits="userSpaceOnUse" x1="2561.1958" y1="636.3885" x2="80.5395" y2="4447.4624">
			<stop  offset="0" style="stop-color:#FF00FF"/>
			<stop  offset="1" style="stop-color:#00FFFF"/>
		</linearGradient>
		<rect x="822.3" y="1034.6" class="st3" width="1295.9" height="2555.7"/>
	</g>
	<path class="st4" d="M1235.7,2421.3l-267.6,741.5l449.3-37.4c5.9-9.8,11.7-19.7,17.5-29.9c113-197.7,244.7-519.4,362.2-834.6
		L1235.7,2421.3z"/>
	<path class="st5" d="M1976.8,1092.8l-240.7-58.2l-135.9,376.5c88.5,215.5,179.3,430.5,271.8,644.5
		c140.7-392.7,246.1-727.2,246.1-727.2L1976.8,1092.8z"/>
	<g>
		<defs>
			<path id="SVGID_7_" d="M1424.1,2433.6l2155.7-524.4c0,0,164.9,565.5-377,730.4C2660.9,2804.6,398.9,3158,398.9,3158
				s-20.6-116.9,60.7-257.9C645.6,2578.1,1091.2,2514.6,1424.1,2433.6"/>
		</defs>
		<clipPath id="SVGID_8_">
			<use xlink:href="#SVGID_7_"  style="overflow:visible;"/>
		</clipPath>
		<linearGradient id="SVGID_9_" gradientUnits="userSpaceOnUse" x1="5425.4727" y1="2044.396" x2="-1420.8143" y2="3040.0984">
			<stop  offset="0" style="stop-color:#FF00FF"/>
			<stop  offset="0.48" style="stop-color:#FF7A85"/>
			<stop  offset="1" style="stop-color:#FFFF00"/>
		</linearGradient>
		<rect x="378.3" y="1909.3" class="st6" width="3366.4" height="1248.8"/>
	</g>
	<path class="st7" d="M1978.3,2298.8l646-157.1l201.5,589.6c-173,36.9-378.9,76.9-596.6,117.1c-9-18.9-18-37.8-26.9-56.6
		c-68.1-144.1-133.8-289.5-198.4-435.2C1995.3,2337.3,1986.8,2318.1,1978.3,2298.8"/>
	<g>
		<defs>
			<path id="SVGID_10_" d="M1953.2,433.1l1131,3133.7c0,0-329.9,23.6-612.6-471.2c-282.7-494.8-835.4-1783.9-835.4-1783.9
				L1953.2,433.1z"/>
		</defs>
		<clipPath id="SVGID_11_">
			<use xlink:href="#SVGID_10_"  style="overflow:visible;"/>
		</clipPath>
		<linearGradient id="SVGID_12_" gradientUnits="userSpaceOnUse" x1="3009.0354" y1="3844.595" x2="1723.7518" y2="213.8577">
			<stop  offset="0" style="stop-color:#FF00FF"/>
			<stop  offset="0.48" style="stop-color:#FF7A85"/>
			<stop  offset="1" style="stop-color:#FFFF00"/>
		</linearGradient>
		<rect x="1636.2" y="433.1" class="st8" width="1448" height="3157.3"/>
	</g>
	<path class="st9" d="M2110.9,2595c-36.2-79.3-71.8-158.8-107.1-238.4c-8.5-19.2-17-38.5-25.5-57.8l-215.2,52.3l-339.1,82.5
		c-66.6,16.2-137.7,31.7-210.4,48.7c-290.4,68-605.2,160.2-754,417.8c-81.4,140.9-60.7,257.9-60.7,257.9s44.4-263.2,709.7-384.8
		c14.2-2.6,28.7-5.1,43.5-7.6c151.7-25.3,315.4-53.8,479-83.1C1795.3,2653.2,1959.4,2623.1,2110.9,2595"/>
	<path class="st10" d="M1629,2383.8l-204.9,49.8c-66.6,16.2-137.7,31.7-210.4,48.7c-290.4,68-605.2,160.2-754,417.8
		c-81.4,140.9-60.7,257.9-60.7,257.9s44.4-263.2,709.7-384.8c14.2-2.6,28.7-5.1,43.5-7.6c151.7-25.3,315.4-53.8,479-83.1
		c102.9-18.4,205.7-37.1,305.4-55.4c0,0-501.6,67.8-784.4,91.3c-282.7,23.6-235.6-94.2-141.4-141.4c94.3-47.1,329.9-47.1,518.4-23.6
		C1529.1,2553.6,1422.5,2473.1,1629,2383.8"/>
	<path class="st11" d="M2825.8,2731.3L2825.8,2731.3c159-33.9,290.1-65.2,377-91.6c541.9-164.9,377-730.4,377-730.4
		c-22.8,439.5-754.8,550.1-754.8,550.1s-31.2,6.1-86.4,16.7c-13.6,2.6-28.6,5.5-44.9,8.6l92,255
		C2799.3,2737,2812.6,2734.1,2825.8,2731.3"/>
	<path class="st11" d="M2110.9,2595c-151.6,28.2-315.6,58.2-479.8,87.6c-163.5,29.2-327.2,57.8-479,83.1c-14.8,2.5-29.3,5-43.5,7.6
		c-318.8,58.3-495.1,149.1-592.2,227.8c38.5-29.4,187.7-124.2,577.7-187.6c53.9-8.8,112.4-16.9,175.8-24.3
		c124.4-14.4,235.1-28.7,333.9-42.7c243.7-34.4,414.2-66.5,535.2-90.2c36.6-7.2,68.6-13.6,96.8-19c-9.6-19.9-19.3-40-29-60.2
		C2175.6,2582.9,2143.5,2588.9,2110.9,2595"/>
	<path class="st5" d="M1872.1,2055.6L1872.1,2055.6c14-39,27.6-77.5,40.9-115.1c-48.2-107.2-92.8-207.9-131.6-296
		c-13.4,32.7-27.1,66.9-41.1,102.5c-69.7,177.4-146,387.5-223.3,606.7c-7.3,20.8-14.7,41.7-22.1,62.7l268.3-65.3
		c8.4-22.2,16.8-44.4,25.1-66.6h0C1817.2,2207.4,1845.3,2130.5,1872.1,2055.6"/>
	<path class="st4" d="M1497.3,2977.9c-73.8,12.6-146.2,24.8-216.6,36.6c-18.4,42.4-37.1,81.6-56,117.9
		c-192.6,369.7-402.5,434.3-402.5,434.3s329.9,23.6,612.6-471.2l0.6-1h0C1455.5,3059.3,1476.2,3020.2,1497.3,2977.9"/>
	<path class="st7" d="M3084.2,3566.8c-194.9-181.9-404-514.1-552.5-775.7c-120.8-212.8-201.5-378.8-201.5-378.8l-84.7-178.4
		l-251.2-529.2l-34.4-72.6c10.1,28,20.3,56.1,30.5,84.3c66.5,183.2,135.1,368.2,198.5,531.3c33.2,85.6,65,165.2,94.2,235.3
		c43.4,104.2,97.3,214.9,156.2,326c133.3,251.4,292.7,505.4,416.7,693.6C2988.5,3573.6,3084.2,3566.8,3084.2,3566.8"/>
	<path class="st12" d="M1742.5,1016.9l-6.4,17.7l-25.8,71.4l249.6,525.9l0,0l34.4,72.6l251.2,529.2l84.7,178.4
		c0,0,80.6,166,201.5,378.8c148.5,261.5,357.7,593.8,552.5,775.7l-298.5-827l-92-255l-119.4-330.9l-621-1720.8L1742.5,1016.9z"/>
	<path class="st12" d="M1742.5,1016.9l-6.4,17.7l-25.8,71.4l249.6,525.9l0,0l34.4,72.6l251.2,529.2l84.7,178.4
		c0,0,20.3,41.8,55.8,110.3c0,0-267.8-581.5-314.9-817.1c-47.1-235.6,70.7-306.3,235.6-47.1c164.9,259.2,523,1203.3,523,1203.3v0
		l-43.9-121.8l-92-255l-119.4-330.9l-621-1720.8L1742.5,1016.9z"/>
	<rect class="st13" width="4000" height="4000"/>
</g>
</svg>
